<svg xmlns:xlink="http://www.w3.org/1999/xlink" preserveAspectRatio="none" width="484" height="497" overflow="visible" style="display: block;" viewBox="0 0 484 497" fill="none" xmlns="http://www.w3.org/2000/svg">
<path id="Gemini_Generated_Image_qmss87qmss87qmss 1 (Traced)" fill-rule="evenodd" clip-rule="evenodd" d="M0.920543 0.974436C1.10707 1.46074 4.30653 6.70716 8.02984 12.6325C11.7525 18.5584 17.2406 27.2901 20.2244 32.0363L25.6501 40.6663L43.3098 40.6772C53.0226 40.6832 63.6947 40.834 67.0256 41.0121C83.8755 41.9126 97.5932 45.6062 112.144 53.1588C128.334 61.5635 139.89 72.4391 154.885 93.3836C160.239 100.862 166.796 109.979 169.456 113.643C177.249 124.377 201.869 158.205 208.465 167.239C211.017 170.737 219.148 181.91 226.533 192.069C233.917 202.229 240.497 211.222 241.155 212.055L242.35 213.569L243.532 212.055C246.041 208.839 269.551 176.513 293.743 143.015C297.23 138.185 303.256 129.873 307.133 124.544C311.01 119.214 315.646 112.81 317.437 110.312C319.227 107.814 324.502 100.455 329.159 93.9602C342.023 76.0201 349.627 67.854 360.64 60.1555C373.996 50.8188 391.414 43.9541 407.047 41.8648C409.862 41.4887 422.502 41.0878 435.136 40.9745C453.299 40.811 458.263 40.5984 458.851 39.9601C459.261 39.5156 463.499 32.8841 468.269 25.2231C473.038 17.5621 478.529 8.75292 480.471 5.64734L484 0L446.901 0.246474C412.781 0.473578 409.17 0.595293 401.929 1.76897C389.948 3.70996 385.771 4.71045 375.888 8.00559C354.194 15.2384 335.392 26.9037 318.979 43.3134C310.028 52.2619 309.581 52.8209 294.288 74.1506C284.236 88.1711 279.17 95.1738 259.366 122.424C244.877 142.361 242.809 145.142 242.354 145.314C242.092 145.413 236.303 137.782 229.488 128.357C222.675 118.932 211.425 103.453 204.489 93.9602C197.554 84.4672 188.338 71.7947 184.011 65.7992C174.289 52.331 168.785 45.8939 160.593 38.4085C143.135 22.4567 125.81 12.716 103.298 6.19418C85.4604 1.0271 74.408 0.096893 30.7754 0.0932593C4.55058 0.0908368 0.626215 0.206519 0.920543 0.974436ZM50.5535 82.3282C49.8177 82.7957 59.4499 96.5873 87.6497 135.445C94.6597 145.104 105.863 160.638 112.545 169.965C139.329 207.347 161.416 238.074 165.144 243.141L169.079 248.489L163.716 255.859C153.995 269.216 140.909 287.386 138.125 291.39C136.62 293.555 131.064 301.322 125.778 308.65C120.493 315.978 107.956 333.419 97.9172 347.409C87.8792 361.399 76.9758 376.524 73.6885 381.02C65.8337 391.764 56.7156 404.581 52.8324 410.335C50.2707 414.131 49.8885 415.02 50.6849 415.325C51.2179 415.53 56.7477 415.556 62.9734 415.382C72.4252 415.119 75.2498 414.816 80.091 413.549C92.7296 410.239 101.14 405.418 110.36 396.195C114.772 391.782 119.556 385.663 130.511 370.422C138.412 359.43 148.04 346.077 151.907 340.747C155.774 335.418 162.269 326.425 166.339 320.762C170.41 315.1 178.056 304.471 183.33 297.143C203.239 269.483 214.762 253.457 216.482 251.035L218.26 248.532L214.955 244.071C213.138 241.618 208.425 235.113 204.483 229.617C200.541 224.121 192.645 213.22 186.939 205.393C181.232 197.565 170.204 182.304 162.432 171.479C140.17 140.471 136.531 135.407 129.785 126.058C126.3 121.228 121.815 114.96 119.819 112.129C115.194 105.571 105.277 95.688 99.4743 91.8545C93.5453 87.9367 85.4035 84.6446 77.8267 83.1003C73.0326 82.1235 69.4359 81.8497 61.48 81.857C55.8696 81.8625 50.9526 82.0744 50.5535 82.3282ZM406.169 83.0519C393.029 86.0399 381.307 92.7265 372.644 102.176C370.526 104.486 364.408 112.507 359.047 120.001C353.686 127.496 346.289 137.753 342.609 142.796C338.929 147.838 333.987 154.652 331.629 157.936C326.082 165.66 315.253 180.661 310.485 187.224C308.428 190.056 302.025 198.913 296.257 206.907C290.487 214.901 284.082 223.758 282.022 226.589C272.604 239.535 267.096 247.301 266.817 248.029C266.537 248.757 271.772 256.223 296.161 289.876C308.633 307.085 313.82 314.269 327.645 333.48C334.356 342.806 345.577 358.34 352.58 368C359.582 377.659 366.413 387.098 367.759 388.974C373.555 397.055 382.424 404.298 392.1 408.852C402.984 413.975 413.803 415.885 427.707 415.137L434.889 414.751L431.452 409.846C428.619 405.803 405.605 373.676 387.811 348.923C385.537 345.759 374.866 330.906 364.099 315.917C353.332 300.928 342.831 286.348 340.762 283.517C338.694 280.686 332.533 272.141 327.073 264.529C321.612 256.917 316.761 250.159 316.294 249.512C315.541 248.468 315.609 248.113 316.891 246.395C317.687 245.328 323.221 237.642 329.189 229.315C335.157 220.987 342.599 210.631 345.726 206.301C348.853 201.971 357.328 190.234 364.558 180.219C371.789 170.204 382.227 155.76 387.755 148.121C404.246 125.332 414.654 110.791 424.79 96.3826C433.775 83.6096 434.289 82.7315 432.99 82.3627C432.228 82.1459 426.971 81.9642 421.309 81.9594C413.507 81.9521 409.84 82.2167 406.169 83.0519ZM232.692 296.393C227.546 303.468 219.082 315.115 213.882 322.276C202.516 337.932 180.962 367.521 169.989 382.534C165.608 388.53 158.226 398.745 153.586 405.235C135.947 429.906 120.46 442.38 97.586 450.342C86.7158 454.126 81.5142 454.919 63.6947 455.513C54.8679 455.807 42.6042 456.063 36.4421 456.082L25.2383 456.118L13.4289 474.982C6.93366 485.358 1.25485 494.516 0.809726 495.333L0 496.82L37.7521 496.509C59.3319 496.332 77.7092 495.917 80.6518 495.54C90.5548 494.274 99.203 492.285 109.116 488.995C133.479 480.909 154.742 466.363 172.667 445.518C177.603 439.779 178.411 438.692 206.682 399.794C231.246 365.996 241.994 351.411 242.35 351.392C242.619 351.377 248.858 359.839 265.927 383.37C268.735 387.24 277.291 399.128 284.939 409.787C308.393 442.472 310.261 444.863 319.484 453.998C324.192 458.662 330.769 464.521 334.098 467.019C350.221 479.114 367.91 487.482 387.718 492.385C402.315 495.998 405.591 496.229 446.593 496.525C467.162 496.674 483.99 496.653 483.99 496.479C483.99 496.305 480.515 490.702 476.268 484.028C472.021 477.355 466.639 468.846 464.307 465.12C461.976 461.394 459.571 457.707 458.964 456.928L457.861 455.511L434.74 455.507C417.248 455.505 410.146 455.282 405.569 454.592C383.055 451.198 362.419 440.667 346.213 424.3C339.928 417.953 338.849 416.623 329.769 404.034C314.143 382.367 305.361 370.227 299.976 362.852C290.242 349.518 257.263 303.977 249.68 293.395C245.815 288.003 242.517 283.577 242.35 283.56C242.184 283.545 237.837 289.319 232.692 296.393Z" fill="white"/>
</svg>
